<mxfile host="app.diagrams.net" agent="Mozilla/5.0 (Windows NT 10.0; Win64; x64; rv:141.0) Gecko/20100101 Firefox/141.0" version="28.0.7">
  <diagram name="第 1 页" id="HvUOIocHKBapucaxDCyF">
    <mxGraphModel dx="2455" dy="956" grid="1" gridSize="10" guides="1" tooltips="1" connect="1" arrows="1" fold="1" page="1" pageScale="1" pageWidth="1169" pageHeight="827" math="0" shadow="0">
      <root>
        <mxCell id="0" />
        <mxCell id="1" parent="0" />
        <mxCell id="j-SoW3xQul4vtmljvLiX-5" value="libmpi.a" style="rounded=0;whiteSpace=wrap;html=1;" vertex="1" parent="1">
          <mxGeometry x="480" y="280" width="240" height="40" as="geometry" />
        </mxCell>
        <mxCell id="j-SoW3xQul4vtmljvLiX-7" value="" style="endArrow=none;dashed=1;html=1;dashPattern=8 8;strokeWidth=2;rounded=0;" edge="1" parent="1">
          <mxGeometry width="50" height="50" relative="1" as="geometry">
            <mxPoint x="40" y="400" as="sourcePoint" />
            <mxPoint x="1120" y="400" as="targetPoint" />
          </mxGeometry>
        </mxCell>
        <mxCell id="j-SoW3xQul4vtmljvLiX-19" value="" style="edgeStyle=none;rounded=0;orthogonalLoop=1;jettySize=auto;html=1;entryX=0.129;entryY=0;entryDx=0;entryDy=0;entryPerimeter=0;exitX=0.75;exitY=1;exitDx=0;exitDy=0;" edge="1" parent="1" source="j-SoW3xQul4vtmljvLiX-9" target="j-SoW3xQul4vtmljvLiX-14">
          <mxGeometry relative="1" as="geometry" />
        </mxCell>
        <mxCell id="j-SoW3xQul4vtmljvLiX-9" value="isp.ko" style="rounded=0;whiteSpace=wrap;html=1;" vertex="1" parent="1">
          <mxGeometry x="140" y="522" width="106" height="40" as="geometry" />
        </mxCell>
        <mxCell id="j-SoW3xQul4vtmljvLiX-16" style="edgeStyle=none;rounded=0;orthogonalLoop=1;jettySize=auto;html=1;entryX=0.25;entryY=0;entryDx=0;entryDy=0;exitX=0.75;exitY=1;exitDx=0;exitDy=0;" edge="1" parent="1" source="j-SoW3xQul4vtmljvLiX-10" target="j-SoW3xQul4vtmljvLiX-14">
          <mxGeometry relative="1" as="geometry" />
        </mxCell>
        <mxCell id="j-SoW3xQul4vtmljvLiX-10" value="vicap.ko" style="rounded=0;whiteSpace=wrap;html=1;" vertex="1" parent="1">
          <mxGeometry x="202" y="440" width="70" height="40" as="geometry" />
        </mxCell>
        <mxCell id="j-SoW3xQul4vtmljvLiX-17" style="edgeStyle=none;rounded=0;orthogonalLoop=1;jettySize=auto;html=1;entryX=0.5;entryY=0;entryDx=0;entryDy=0;exitX=0.5;exitY=1;exitDx=0;exitDy=0;" edge="1" parent="1" source="j-SoW3xQul4vtmljvLiX-11" target="j-SoW3xQul4vtmljvLiX-14">
          <mxGeometry relative="1" as="geometry">
            <mxPoint x="331.07142857142867" y="480" as="sourcePoint" />
            <mxPoint x="325.5" y="600" as="targetPoint" />
          </mxGeometry>
        </mxCell>
        <mxCell id="j-SoW3xQul4vtmljvLiX-11" value="vpu.ko" style="rounded=0;whiteSpace=wrap;html=1;" vertex="1" parent="1">
          <mxGeometry x="297" y="440" width="60" height="40" as="geometry" />
        </mxCell>
        <mxCell id="j-SoW3xQul4vtmljvLiX-18" style="edgeStyle=none;rounded=0;orthogonalLoop=1;jettySize=auto;html=1;entryX=0.75;entryY=0;entryDx=0;entryDy=0;" edge="1" parent="1" source="j-SoW3xQul4vtmljvLiX-12" target="j-SoW3xQul4vtmljvLiX-14">
          <mxGeometry relative="1" as="geometry" />
        </mxCell>
        <mxCell id="j-SoW3xQul4vtmljvLiX-12" value="vgs.ko" style="rounded=0;whiteSpace=wrap;html=1;" vertex="1" parent="1">
          <mxGeometry x="369" y="440" width="60" height="40" as="geometry" />
        </mxCell>
        <mxCell id="j-SoW3xQul4vtmljvLiX-14" value="media_process.ko" style="rounded=0;whiteSpace=wrap;html=1;points=[[0,0,0,0,0],[0,0.25,0,0,0],[0,0.5,0,0,0],[0,0.75,0,0,0],[0,1,0,0,0],[0.25,0,0,0,0],[0.25,1,0,0,0],[0.5,0,0,0,0],[0.5,1,0,0,0],[0.75,0,0,0,0],[0.75,1,0,0,0],[1,0,0,0,0],[1,0.25,0,0,0],[1,0.5,0,0,0],[1,0.75,0,0,0],[1,1,0,0,0]];" vertex="1" parent="1">
          <mxGeometry x="183" y="600" width="287" height="40" as="geometry" />
        </mxCell>
        <mxCell id="j-SoW3xQul4vtmljvLiX-15" style="edgeStyle=none;rounded=0;orthogonalLoop=1;jettySize=auto;html=1;exitX=0.25;exitY=1;exitDx=0;exitDy=0;endArrow=open;endFill=0;entryX=0.75;entryY=0;entryDx=0;entryDy=0;" edge="1" parent="1" source="j-SoW3xQul4vtmljvLiX-10" target="j-SoW3xQul4vtmljvLiX-9">
          <mxGeometry relative="1" as="geometry">
            <mxPoint x="212" y="520" as="targetPoint" />
          </mxGeometry>
        </mxCell>
        <mxCell id="j-SoW3xQul4vtmljvLiX-20" value="sys.ko" style="rounded=0;whiteSpace=wrap;html=1;points=[[0,0,0,0,0],[0,0.25,0,0,0],[0,0.5,0,0,0],[0,0.75,0,0,0],[0,1,0,0,0],[0.25,0,0,0,0],[0.25,1,0,0,0],[0.5,0,0,0,0],[0.5,1,0,0,0],[0.75,0,0,0,0],[0.75,1,0,0,0],[1,0,0,0,0],[1,0.25,0,0,0],[1,0.5,0,0,0],[1,0.75,0,0,0],[1,1,0,0,0]];" vertex="1" parent="1">
          <mxGeometry x="429" y="810" width="287" height="40" as="geometry" />
        </mxCell>
        <mxCell id="j-SoW3xQul4vtmljvLiX-21" value="fybase.ko" style="rounded=0;whiteSpace=wrap;html=1;points=[[0,0,0,0,0],[0,0.25,0,0,0],[0,0.5,0,0,0],[0,0.75,0,0,0],[0,1,0,0,0],[0.25,0,0,0,0],[0.25,1,0,0,0],[0.5,0,0,0,0],[0.5,1,0,0,0],[0.75,0,0,0,0],[0.75,1,0,0,0],[1,0,0,0,0],[1,0.25,0,0,0],[1,0.5,0,0,0],[1,0.75,0,0,0],[1,1,0,0,0]];" vertex="1" parent="1">
          <mxGeometry x="429" y="880" width="287" height="40" as="geometry" />
        </mxCell>
        <mxCell id="j-SoW3xQul4vtmljvLiX-22" value="fyosal.ko" style="rounded=0;whiteSpace=wrap;html=1;points=[[0,0,0,0,0],[0,0.25,0,0,0],[0,0.5,0,0,0],[0,0.75,0,0,0],[0,1,0,0,0],[0.25,0,0,0,0],[0.25,1,0,0,0],[0.5,0,0,0,0],[0.5,1,0,0,0],[0.75,0,0,0,0],[0.75,1,0,0,0],[1,0,0,0,0],[1,0.25,0,0,0],[1,0.5,0,0,0],[1,0.75,0,0,0],[1,1,0,0,0]];" vertex="1" parent="1">
          <mxGeometry x="429" y="940" width="287" height="40" as="geometry" />
        </mxCell>
        <mxCell id="j-SoW3xQul4vtmljvLiX-23" value="mmz.ko" style="rounded=0;whiteSpace=wrap;html=1;points=[[0,0,0,0,0],[0,0.25,0,0,0],[0,0.5,0,0,0],[0,0.75,0,0,0],[0,1,0,0,0],[0.25,0,0,0,0],[0.25,1,0,0,0],[0.5,0,0,0,0],[0.5,1,0,0,0],[0.75,0,0,0,0],[0.75,1,0,0,0],[1,0,0,0,0],[1,0.25,0,0,0],[1,0.5,0,0,0],[1,0.75,0,0,0],[1,1,0,0,0]];" vertex="1" parent="1">
          <mxGeometry x="746" y="880" width="287" height="40" as="geometry" />
        </mxCell>
        <mxCell id="j-SoW3xQul4vtmljvLiX-24" style="edgeStyle=orthogonalEdgeStyle;rounded=0;orthogonalLoop=1;jettySize=auto;html=1;entryX=0.25;entryY=0;entryDx=0;entryDy=0;entryPerimeter=0;" edge="1" parent="1" source="j-SoW3xQul4vtmljvLiX-14" target="j-SoW3xQul4vtmljvLiX-20">
          <mxGeometry relative="1" as="geometry" />
        </mxCell>
        <mxCell id="j-SoW3xQul4vtmljvLiX-25" value="venc.ko" style="rounded=0;whiteSpace=wrap;html=1;" vertex="1" parent="1">
          <mxGeometry x="510" y="440" width="60" height="40" as="geometry" />
        </mxCell>
        <mxCell id="j-SoW3xQul4vtmljvLiX-26" value="vppu.ko" style="rounded=0;whiteSpace=wrap;html=1;" vertex="1" parent="1">
          <mxGeometry x="606" y="440" width="60" height="40" as="geometry" />
        </mxCell>
        <mxCell id="j-SoW3xQul4vtmljvLiX-27" value="g2d.ko" style="rounded=0;whiteSpace=wrap;html=1;" vertex="1" parent="1">
          <mxGeometry x="686" y="440" width="60" height="40" as="geometry" />
        </mxCell>
        <mxCell id="j-SoW3xQul4vtmljvLiX-28" value="vdu.ko" style="rounded=0;whiteSpace=wrap;html=1;" vertex="1" parent="1">
          <mxGeometry x="766" y="440" width="60" height="40" as="geometry" />
        </mxCell>
        <mxCell id="j-SoW3xQul4vtmljvLiX-29" value="vou.ko" style="rounded=0;whiteSpace=wrap;html=1;" vertex="1" parent="1">
          <mxGeometry x="510" y="500" width="60" height="40" as="geometry" />
        </mxCell>
        <mxCell id="j-SoW3xQul4vtmljvLiX-30" value="acw.ko" style="rounded=0;whiteSpace=wrap;html=1;" vertex="1" parent="1">
          <mxGeometry x="880" y="440" width="60" height="40" as="geometry" />
        </mxCell>
        <mxCell id="j-SoW3xQul4vtmljvLiX-31" value="acw.ko" style="rounded=0;whiteSpace=wrap;html=1;" vertex="1" parent="1">
          <mxGeometry x="960" y="440" width="60" height="40" as="geometry" />
        </mxCell>
      </root>
    </mxGraphModel>
  </diagram>
</mxfile>
